<svg width="1440" height="1024" viewBox="0 0 1440 1024" fill="none" xmlns="http://www.w3.org/2000/svg">
<g clip-path="url(#clip0)">
<rect width="1440" height="1024" fill="white"/>
<path d="M191.239 37.7498C188.741 26.6897 187.5 20.5529 187.5 20.5529C187.5 20.5529 189.634 29.5283 191.239 37.7498C208.347 113.519 284.393 420.349 424 568.053C510.631 659.708 606.102 659.566 685.5 757.553C759.192 848.499 812.5 1029.05 812.5 1029.05H-12V5.5529C-12 5.5529 150.022 -67.9471 177.5 13.0529C195.376 65.7475 194.225 53.0552 191.239 37.7498Z" fill="#4F997B" fill-opacity="0.8"/>
<path d="M351.739 49.9238C349.241 38.8637 348 32.7268 348 32.7268C348 32.7268 350.134 41.7023 351.739 49.9238C368.847 125.693 444.893 432.523 584.5 580.227C671.131 671.882 766.602 671.74 846 769.727C919.692 860.673 973 1041.23 973 1041.23H-81L-32.5 547.674L-81 4.67408C-81 4.67408 310.522 -55.7732 338 25.2268C355.876 77.9214 354.725 65.2292 351.739 49.9238Z" fill="#4F997B" fill-opacity="0.14"/>
<path d="M430.358 493.498C328.499 274.309 261.858 8.9982 261.858 8.9982C231.564 -71.9977 13.5 8.9982 13.5 8.9982V1028L896.858 1051C896.858 1051 838.086 870.453 756.842 779.512C669.307 681.529 469.858 578.498 430.358 493.498Z" fill="#4F997B" fill-opacity="0.2"/>
</g>
<defs>
<clipPath id="clip0">
<rect width="1440" height="1024" fill="white"/>
</clipPath>
</defs>
</svg>
